<svg width="4000" height="2000" viewBox="0 0 4000 2000" fill="none" xmlns="http://www.w3.org/2000/svg">
<g clip-path="url(#clip0_12_20)">
<rect width="4000" height="2000" fill="#0E1331"/>
<path d="M697.01 1261.01L911.854 1260.47V1167.02H697.01V1261.01ZM482.166 885.035V697.047H1032.7L1126.7 791.041V1019.31L1072.99 1073.02L1126.7 1126.73V1354.47L1032.7 1448.46L482.166 1449V925.318H697.01V979.029L911.854 978.492V885.035H482.166ZM1479.04 1261.01L1422.11 1449H1207.26L1435.54 697.047H1757.8L1986.07 1449H1771.23L1714.29 1261.01H1479.04ZM1596.67 873.756L1536.51 1073.02H1657.36L1596.67 873.756ZM2466.79 1002.12L2764.88 1449H2523.18L2328.75 1157.35L2308.34 1180.45V1449H2093.49V697.047H2308.34V938.746L2523.18 697.047H2738.03L2466.79 1002.12ZM2966.3 1167.02L2872.3 1073.02V791.041L2965.76 697.047H3516.83V885.035H3087.15V979.029H3422.84L3516.83 1073.02V1355.01L3422.84 1449H2872.3V1261.01H3301.99V1167.02H2966.3Z" fill="#FF5500"/>
</g>
<defs>
<clipPath id="clip0_12_20">
<rect width="4000" height="2000" fill="white"/>
</clipPath>
</defs>
</svg>
