<?xml version="1.0" standalone="no"?>
<!DOCTYPE svg PUBLIC "-//W3C//DTD SVG 20010904//EN"
 "http://www.w3.org/TR/2001/REC-SVG-20010904/DTD/svg10.dtd">
<svg version="1.0" xmlns="http://www.w3.org/2000/svg"
 width="512.000000pt" height="512.000000pt" viewBox="0 0 512.000000 512.000000"
 preserveAspectRatio="xMidYMid meet">
<metadata>
Created by potrace 1.11, written by Peter Selinger 2001-2013
</metadata>
<g transform="translate(0.000000,512.000000) scale(0.100000,-0.100000)"
fill="#000000" stroke="none">
<path d="M415 5110 c-207 -42 -367 -201 -404 -405 -15 -82 -15 -4217 0 -4301
27 -152 135 -292 277 -362 l77 -37 2195 0 2195 0 57 23 c121 49 231 159 280
280 l23 57 0 2190 0 2190 -23 57 c-66 162 -215 280 -392 309 -68 11 -4229 10
-4285 -1z m3309 -1102 c46 -23 133 -102 141 -128 8 -25 -80 -159 -180 -275
-219 -256 -721 -760 -957 -963 -48 -42 -91 -85 -94 -95 -4 -12 2 -30 15 -46
11 -14 100 -138 197 -276 287 -405 439 -581 581 -672 87 -55 129 -56 230 -3
76 40 82 42 117 30 21 -7 42 -22 48 -34 16 -36 -64 -151 -196 -281 -119 -118
-169 -150 -249 -158 -45 -4 -52 -2 -108 40 -148 112 -332 319 -568 641 -145
199 -300 395 -365 464 -38 41 -58 45 -119 24 -33 -12 -40 -12 -61 5 -14 11
-30 36 -37 57 -7 20 -14 31 -16 25 -3 -7 -11 -13 -19 -13 -7 0 -20 -10 -28
-22 -38 -59 -187 -617 -226 -844 -17 -96 -19 -128 -10 -164 18 -74 -13 -124
-86 -140 -44 -10 -71 1 -156 66 -71 55 -98 98 -98 157 0 132 282 969 561 1663
82 205 149 375 149 379 0 3 -8 4 -19 0 -12 -3 -21 0 -25 10 -8 22 -28 19 -176
-31 -304 -102 -540 -247 -540 -333 0 -15 9 -63 20 -106 11 -43 20 -95 20 -116
0 -47 -34 -90 -89 -111 -39 -15 -42 -15 -66 4 -30 23 -122 208 -159 320 -14
42 -26 98 -26 125 0 101 76 200 200 263 34 17 263 98 508 181 457 153 532 185
579 246 14 18 44 41 68 53 37 18 49 20 83 10 36 -9 142 -91 142 -109 0 -3 -46
-94 -102 -201 -122 -234 -249 -510 -349 -758 -65 -160 -72 -185 -59 -195 9 -7
14 -21 12 -31 -3 -15 0 -17 14 -12 67 26 170 47 201 41 32 -6 40 -1 134 81
191 166 530 516 644 664 l45 58 -33 27 c-45 39 -67 75 -67 113 0 49 16 72 68
94 32 14 83 56 163 137 138 139 139 140 186 157 45 16 102 10 157 -18z"/>
</g>
</svg>
