<svg width="870" height="280" viewBox="0 0 870 280" fill="none" xmlns="http://www.w3.org/2000/svg">
<g clip-path="url(#clip0_14_20)">
<rect x="7.5" y="7.5" width="855" height="265" rx="62.505" stroke="url(#paint0_linear_14_20)" stroke-width="15"/>
<path d="M228.3 112.25L241.575 138.575L253.425 112.25H264.375L239.1 167H228.225L236.4 149.6L216.975 112.25H228.3ZM289.556 152.975C288.256 153.325 286.881 153.6 285.431 153.8C284.031 154 282.656 154.1 281.306 154.1C278.206 154.1 275.481 153.725 273.131 152.975C270.781 152.175 268.806 151.075 267.206 149.675C265.606 148.275 264.381 146.6 263.531 144.65C262.731 142.65 262.331 140.475 262.331 138.125V123.125H272.456V136.475C272.456 139.025 273.206 141.05 274.706 142.55C276.256 144 278.931 144.725 282.731 144.725C283.831 144.725 284.956 144.675 286.106 144.575C287.306 144.475 288.456 144.3 289.556 144.05V123.125H299.681V167H289.556V152.975ZM327.247 167.9C323.797 167.9 320.647 167.325 317.797 166.175C314.947 164.975 312.497 163.35 310.447 161.3C308.447 159.25 306.872 156.85 305.722 154.1C304.622 151.3 304.072 148.325 304.072 145.175C304.072 141.975 304.647 138.975 305.797 136.175C306.997 133.375 308.622 130.95 310.672 128.9C312.722 126.85 315.122 125.225 317.872 124.025C320.672 122.825 323.672 122.225 326.872 122.225C330.122 122.225 333.122 122.8 335.872 123.95C338.672 125.05 341.072 126.625 343.072 128.675C345.072 130.675 346.622 133.05 347.722 135.8C348.872 138.55 349.447 141.55 349.447 144.8V148.625H313.747C314.447 151.775 315.972 154.3 318.322 156.2C320.672 158.05 323.647 158.975 327.247 158.975C330.097 158.975 332.572 158.3 334.672 156.95C336.772 155.55 338.347 153.65 339.397 151.25L347.722 156.05C345.822 159.65 343.172 162.525 339.772 164.675C336.372 166.825 332.197 167.9 327.247 167.9ZM326.872 131.15C323.822 131.15 321.172 131.975 318.922 133.625C316.722 135.275 315.172 137.45 314.272 140.15H339.172C338.422 137.15 336.972 134.9 334.822 133.4C332.672 131.9 330.022 131.15 326.872 131.15ZM393.284 119.15L377.759 120.875C369.809 121.775 364.834 125.875 362.834 133.175C364.234 131.025 366.209 129.3 368.759 128C371.309 126.7 374.209 126.05 377.459 126.05C380.159 126.05 382.684 126.55 385.034 127.55C387.434 128.55 389.509 129.95 391.259 131.75C393.009 133.55 394.384 135.7 395.384 138.2C396.384 140.7 396.884 143.425 396.884 146.375C396.884 149.425 396.334 152.275 395.234 154.925C394.134 157.525 392.609 159.8 390.659 161.75C388.759 163.65 386.484 165.15 383.834 166.25C381.184 167.35 378.284 167.9 375.134 167.9C371.434 167.9 368.259 167.2 365.609 165.8C362.959 164.4 360.709 162.575 358.859 160.325C356.809 157.775 355.334 154.775 354.434 151.325C353.534 147.875 353.084 144.15 353.084 140.15C353.084 135.75 353.634 131.725 354.734 128.075C355.884 124.425 357.734 121.325 360.284 118.775C364.284 114.775 369.934 112.4 377.234 111.65L392.459 110.075L393.284 119.15ZM375.359 158.45C377.059 158.45 378.609 158.15 380.009 157.55C381.409 156.95 382.609 156.125 383.609 155.075C384.659 154.025 385.459 152.775 386.009 151.325C386.609 149.875 386.909 148.325 386.909 146.675C386.909 145.025 386.609 143.5 386.009 142.1C385.459 140.65 384.659 139.425 383.609 138.425C382.609 137.375 381.409 136.55 380.009 135.95C378.609 135.35 377.059 135.05 375.359 135.05C373.709 135.05 372.159 135.35 370.709 135.95C369.309 136.55 368.084 137.375 367.034 138.425C365.984 139.425 365.159 140.65 364.559 142.1C364.009 143.5 363.734 145.025 363.734 146.675C363.734 148.325 364.009 149.875 364.559 151.325C365.159 152.775 365.984 154.025 367.034 155.075C368.084 156.125 369.309 156.95 370.709 157.55C372.159 158.15 373.709 158.45 375.359 158.45ZM430.471 149.525H411.496V167H401.371V123.125H411.496V140.225H430.471V123.125H440.596V167H430.471V149.525ZM446.781 123.125H456.906V136.25H465.756C468.406 136.25 470.806 136.65 472.956 137.45C475.156 138.25 477.006 139.35 478.506 140.75C480.056 142.15 481.231 143.775 482.031 145.625C482.881 147.475 483.306 149.45 483.306 151.55C483.306 153.65 482.881 155.65 482.031 157.55C481.231 159.4 480.056 161.025 478.506 162.425C477.006 163.825 475.181 164.95 473.031 165.8C470.931 166.6 468.581 167 465.981 167H446.781V123.125ZM465.381 158.15C467.681 158.15 469.556 157.525 471.006 156.275C472.506 155.025 473.256 153.45 473.256 151.55C473.256 149.65 472.506 148.075 471.006 146.825C469.556 145.575 467.681 144.95 465.381 144.95H456.906V158.15H465.381ZM486.456 123.125H496.656V167H486.456V123.125ZM523.66 113.75C525.56 113.75 527.035 113.175 528.085 112.025C529.135 110.825 529.71 109.1 529.81 106.85H536.785C536.785 108.7 536.51 110.425 535.96 112.025C535.41 113.575 534.585 114.925 533.485 116.075C532.385 117.225 531.01 118.125 529.36 118.775C527.76 119.425 525.86 119.75 523.66 119.75C521.46 119.75 519.535 119.425 517.885 118.775C516.285 118.125 514.935 117.225 513.835 116.075C512.735 114.925 511.91 113.575 511.36 112.025C510.81 110.425 510.535 108.7 510.535 106.85H517.51C517.61 109.1 518.185 110.825 519.235 112.025C520.285 113.175 521.76 113.75 523.66 113.75ZM542.71 167H532.735V137.975L512.935 167H502.885V123.125H512.86V151.4L532.135 123.125H542.71V167ZM595.322 132.425H577.097V167H566.972V123.125H605.447V167H595.322V132.425ZM632.583 167.9C629.433 167.9 626.458 167.325 623.658 166.175C620.908 164.975 618.508 163.35 616.458 161.3C614.408 159.2 612.783 156.775 611.583 154.025C610.433 151.225 609.858 148.25 609.858 145.1C609.858 141.9 610.433 138.925 611.583 136.175C612.783 133.375 614.408 130.95 616.458 128.9C618.508 126.8 620.908 125.175 623.658 124.025C626.458 122.825 629.433 122.225 632.583 122.225C635.733 122.225 638.683 122.825 641.433 124.025C644.183 125.175 646.583 126.8 648.633 128.9C650.733 130.95 652.358 133.375 653.508 136.175C654.708 138.925 655.308 141.9 655.308 145.1C655.308 148.25 654.708 151.225 653.508 154.025C652.358 156.775 650.733 159.2 648.633 161.3C646.583 163.35 644.183 164.975 641.433 166.175C638.683 167.325 635.733 167.9 632.583 167.9ZM632.583 158.375C634.383 158.375 636.058 158.025 637.608 157.325C639.158 156.625 640.508 155.675 641.658 154.475C642.808 153.275 643.708 151.875 644.358 150.275C645.008 148.625 645.333 146.9 645.333 145.1C645.333 143.25 645.008 141.525 644.358 139.925C643.708 138.275 642.808 136.85 641.658 135.65C640.508 134.45 639.158 133.5 637.608 132.8C636.058 132.1 634.383 131.75 632.583 131.75C630.783 131.75 629.083 132.1 627.483 132.8C625.933 133.5 624.583 134.45 623.433 135.65C622.333 136.85 621.458 138.275 620.808 139.925C620.158 141.525 619.833 143.25 619.833 145.1C619.833 146.9 620.158 148.625 620.808 150.275C621.458 151.875 622.333 153.275 623.433 154.475C624.583 155.675 625.933 156.625 627.483 157.325C629.083 158.025 630.783 158.375 632.583 158.375ZM684.145 167.9C681.145 167.9 678.395 167.375 675.895 166.325C673.395 165.275 671.37 163.775 669.82 161.825V187.175H659.77V123.125H669.82V128.975C671.37 126.875 673.37 125.225 675.82 124.025C678.32 122.825 681.07 122.225 684.07 122.225C686.82 122.225 689.495 122.75 692.095 123.8C694.695 124.8 696.995 126.275 698.995 128.225C700.995 130.175 702.595 132.575 703.795 135.425C705.045 138.225 705.67 141.45 705.67 145.1C705.67 148.7 705.045 151.925 703.795 154.775C702.545 157.575 700.895 159.95 698.845 161.9C696.845 163.85 694.545 165.35 691.945 166.4C689.395 167.4 686.795 167.9 684.145 167.9ZM682.495 158.6C684.345 158.6 686.07 158.25 687.67 157.55C689.27 156.85 690.67 155.9 691.87 154.7C693.07 153.45 693.995 152 694.645 150.35C695.345 148.65 695.695 146.85 695.695 144.95C695.695 143.05 695.345 141.275 694.645 139.625C693.995 137.975 693.07 136.55 691.87 135.35C690.67 134.15 689.27 133.2 687.67 132.5C686.07 131.8 684.345 131.45 682.495 131.45C680.595 131.45 678.845 131.8 677.245 132.5C675.645 133.2 674.27 134.175 673.12 135.425C671.97 136.625 671.07 138.05 670.42 139.7C669.77 141.35 669.445 143.1 669.445 144.95C669.445 146.85 669.77 148.625 670.42 150.275C671.07 151.925 671.97 153.375 673.12 154.625C674.27 155.875 675.645 156.85 677.245 157.55C678.845 158.25 680.595 158.6 682.495 158.6ZM719.447 132.5H705.647V123.125H743.372V132.5H729.572V167H719.447V132.5ZM765.199 167.9C762.549 167.9 759.924 167.4 757.324 166.4C754.774 165.35 752.474 163.85 750.424 161.9C748.374 159.95 746.724 157.575 745.474 154.775C744.224 151.925 743.599 148.7 743.599 145.1C743.599 141.45 744.199 138.225 745.399 135.425C746.649 132.575 748.274 130.175 750.274 128.225C752.324 126.275 754.649 124.8 757.249 123.8C759.849 122.75 762.549 122.225 765.349 122.225C768.249 122.225 770.924 122.775 773.374 123.875C775.824 124.975 777.849 126.475 779.449 128.375V123.125H789.574V167H779.449V161.3C777.849 163.4 775.799 165.025 773.299 166.175C770.799 167.325 768.099 167.9 765.199 167.9ZM766.849 158.6C768.699 158.6 770.424 158.25 772.024 157.55C773.674 156.85 775.074 155.875 776.224 154.625C777.374 153.375 778.274 151.925 778.924 150.275C779.624 148.625 779.974 146.85 779.974 144.95C779.974 143.1 779.624 141.35 778.924 139.7C778.274 138.05 777.374 136.625 776.224 135.425C775.074 134.175 773.674 133.2 772.024 132.5C770.424 131.8 768.699 131.45 766.849 131.45C764.949 131.45 763.199 131.8 761.599 132.5C759.999 133.2 758.599 134.15 757.399 135.35C756.199 136.55 755.249 137.975 754.549 139.625C753.899 141.275 753.574 143.05 753.574 144.95C753.574 146.85 753.899 148.65 754.549 150.35C755.249 152 756.199 153.45 757.399 154.7C758.599 155.9 759.999 156.85 761.599 157.55C763.199 158.25 764.949 158.6 766.849 158.6ZM793.166 167L810.941 123.125H820.391L838.166 167H827.591L815.591 136.55L803.591 167H793.166Z" fill="white"/>
<path d="M158.462 98.9821L105.587 81.3571C104.233 80.9 102.767 80.9 101.412 81.3571L48.5375 98.9821C47.2758 99.4 46.1694 100.188 45.3628 101.245C44.5561 102.301 44.0866 103.576 44.0155 104.903C44.0095 105.019 44.0095 105.134 44.0155 105.25V149.312C44.0155 151.065 44.7119 152.747 45.9514 153.986C47.1909 155.226 48.872 155.922 50.6249 155.922C52.3778 155.922 54.059 155.226 55.2985 153.986C56.538 152.747 57.2343 151.065 57.2343 149.312V114.421L70.2933 118.772C66.2404 126.529 65.036 135.463 66.8898 144.017C68.7435 152.571 73.5379 160.204 80.4387 165.588C71.4082 170.041 63.7656 176.876 58.3359 185.356C57.8469 186.082 57.5073 186.899 57.3367 187.758C57.1661 188.617 57.168 189.502 57.3423 190.36C57.5166 191.219 57.8597 192.034 58.3518 192.758C58.8439 193.483 59.4752 194.103 60.2088 194.581C60.9425 195.06 61.7639 195.388 62.6254 195.546C63.4869 195.704 64.3713 195.689 65.2271 195.503C66.0829 195.316 66.8931 194.962 67.6106 194.459C68.3281 193.957 68.9386 193.317 69.4066 192.576C77.2662 180.481 89.7304 173.547 103.5 173.547C117.269 173.547 129.734 180.481 137.621 192.576C138.089 193.317 138.699 193.957 139.417 194.459C140.134 194.962 140.944 195.316 141.8 195.503C142.656 195.689 143.54 195.704 144.402 195.546C145.263 195.388 146.085 195.06 146.819 194.581C147.552 194.103 148.183 193.483 148.676 192.758C149.168 192.034 149.511 191.219 149.685 190.36C149.859 189.502 149.861 188.617 149.691 187.758C149.52 186.899 149.18 186.082 148.692 185.356C143.257 176.867 135.604 170.025 126.561 165.572C133.462 160.188 138.256 152.554 140.11 144C141.964 135.446 140.759 126.513 136.707 118.755L158.462 111.501C159.777 111.062 160.92 110.22 161.729 109.095C162.539 107.97 162.975 106.619 162.975 105.233C162.975 103.848 162.539 102.497 161.729 101.372C160.92 100.247 159.777 99.4053 158.462 98.9656V98.9821ZM103.5 94.5759L135.473 105.25L103.5 115.908L71.5546 105.25L103.5 94.5759ZM127.734 136.094C127.735 139.858 126.859 143.571 125.175 146.937C123.492 150.304 121.047 153.232 118.035 155.49C115.023 157.748 111.526 159.273 107.822 159.944C104.119 160.615 100.309 160.415 96.6964 159.358C93.0836 158.301 89.7666 156.418 87.0084 153.856C84.2502 151.294 82.1266 148.126 80.8059 144.601C79.4853 141.076 79.004 137.291 79.4001 133.548C79.7962 129.805 81.0589 126.205 83.088 123.035L101.412 129.143C102.767 129.598 104.233 129.598 105.587 129.143L123.912 123.035C126.411 126.931 127.738 131.464 127.734 136.094Z" fill="white"/>
</g>
<defs>
<linearGradient id="paint0_linear_14_20" x1="0" y1="140" x2="870" y2="140" gradientUnits="userSpaceOnUse">
<stop stop-color="#667EEA"/>
<stop offset="1" stop-color="#764BA2"/>
</linearGradient>
<clipPath id="clip0_14_20">
<rect width="870" height="280" fill="white"/>
</clipPath>
</defs>
</svg>
